C:\OpenCap\opencap-processing\Data\f695a51c-2aed-4feb-b28d-2290ed51e9ec\OpenSimData\Dynamics\Javelin25_1\GRF_Javelin25_1_0.mot
version=1
nRows=4
nColumns=109
inDegrees=yes
endheader 
time	ground_force_SmoothSphereHalfSpaceForce_s1_r_vx	ground_force_SmoothSphereHalfSpaceForce_s1_r_vy	ground_force_SmoothSphereHalfSpaceForce_s1_r_vz	ground_force_SmoothSphereHalfSpaceForce_s1_r_px	ground_force_SmoothSphereHalfSpaceForce_s1_r_py	ground_force_SmoothSphereHalfSpaceForce_s1_r_pz	ground_torque_SmoothSphereHalfSpaceForce_s1_r_x	ground_torque_SmoothSphereHalfSpaceForce_s1_r_y	ground_torque_SmoothSphereHalfSpaceForce_s1_r_z	ground_force_SmoothSphereHalfSpaceForce_s2_r_vx	ground_force_SmoothSphereHalfSpaceForce_s2_r_vy	ground_force_SmoothSphereHalfSpaceForce_s2_r_vz	ground_force_SmoothSphereHalfSpaceForce_s2_r_px	ground_force_SmoothSphereHalfSpaceForce_s2_r_py	ground_force_SmoothSphereHalfSpaceForce_s2_r_pz	ground_torque_SmoothSphereHalfSpaceForce_s2_r_x	ground_torque_SmoothSphereHalfSpaceForce_s2_r_y	ground_torque_SmoothSphereHalfSpaceForce_s2_r_z	ground_force_SmoothSphereHalfSpaceForce_s3_r_vx	ground_force_SmoothSphereHalfSpaceForce_s3_r_vy	ground_force_SmoothSphereHalfSpaceForce_s3_r_vz	ground_force_SmoothSphereHalfSpaceForce_s3_r_px	ground_force_SmoothSphereHalfSpaceForce_s3_r_py	ground_force_SmoothSphereHalfSpaceForce_s3_r_pz	ground_torque_SmoothSphereHalfSpaceForce_s3_r_x	ground_torque_SmoothSphereHalfSpaceForce_s3_r_y	ground_torque_SmoothSphereHalfSpaceForce_s3_r_z	ground_force_SmoothSphereHalfSpaceForce_s4_r_vx	ground_force_SmoothSphereHalfSpaceForce_s4_r_vy	ground_force_SmoothSphereHalfSpaceForce_s4_r_vz	ground_force_SmoothSphereHalfSpaceForce_s4_r_px	ground_force_SmoothSphereHalfSpaceForce_s4_r_py	ground_force_SmoothSphereHalfSpaceForce_s4_r_pz	ground_torque_SmoothSphereHalfSpaceForce_s4_r_x	ground_torque_SmoothSphereHalfSpaceForce_s4_r_y	ground_torque_SmoothSphereHalfSpaceForce_s4_r_z	ground_force_SmoothSphereHalfSpaceForce_s5_r_vx	ground_force_SmoothSphereHalfSpaceForce_s5_r_vy	ground_force_SmoothSphereHalfSpaceForce_s5_r_vz	ground_force_SmoothSphereHalfSpaceForce_s5_r_px	ground_force_SmoothSphereHalfSpaceForce_s5_r_py	ground_force_SmoothSphereHalfSpaceForce_s5_r_pz	ground_torque_SmoothSphereHalfSpaceForce_s5_r_x	ground_torque_SmoothSphereHalfSpaceForce_s5_r_y	ground_torque_SmoothSphereHalfSpaceForce_s5_r_z	ground_force_SmoothSphereHalfSpaceForce_s6_r_vx	ground_force_SmoothSphereHalfSpaceForce_s6_r_vy	ground_force_SmoothSphereHalfSpaceForce_s6_r_vz	ground_force_SmoothSphereHalfSpaceForce_s6_r_px	ground_force_SmoothSphereHalfSpaceForce_s6_r_py	ground_force_SmoothSphereHalfSpaceForce_s6_r_pz	ground_torque_SmoothSphereHalfSpaceForce_s6_r_x	ground_torque_SmoothSphereHalfSpaceForce_s6_r_y	ground_torque_SmoothSphereHalfSpaceForce_s6_r_z	ground_force_SmoothSphereHalfSpaceForce_s1_l_vx	ground_force_SmoothSphereHalfSpaceForce_s1_l_vy	ground_force_SmoothSphereHalfSpaceForce_s1_l_vz	ground_force_SmoothSphereHalfSpaceForce_s1_l_px	ground_force_SmoothSphereHalfSpaceForce_s1_l_py	ground_force_SmoothSphereHalfSpaceForce_s1_l_pz	ground_torque_SmoothSphereHalfSpaceForce_s1_l_x	ground_torque_SmoothSphereHalfSpaceForce_s1_l_y	ground_torque_SmoothSphereHalfSpaceForce_s1_l_z	ground_force_SmoothSphereHalfSpaceForce_s2_l_vx	ground_force_SmoothSphereHalfSpaceForce_s2_l_vy	ground_force_SmoothSphereHalfSpaceForce_s2_l_vz	ground_force_SmoothSphereHalfSpaceForce_s2_l_px	ground_force_SmoothSphereHalfSpaceForce_s2_l_py	ground_force_SmoothSphereHalfSpaceForce_s2_l_pz	ground_torque_SmoothSphereHalfSpaceForce_s2_l_x	ground_torque_SmoothSphereHalfSpaceForce_s2_l_y	ground_torque_SmoothSphereHalfSpaceForce_s2_l_z	ground_force_SmoothSphereHalfSpaceForce_s3_l_vx	ground_force_SmoothSphereHalfSpaceForce_s3_l_vy	ground_force_SmoothSphereHalfSpaceForce_s3_l_vz	ground_force_SmoothSphereHalfSpaceForce_s3_l_px	ground_force_SmoothSphereHalfSpaceForce_s3_l_py	ground_force_SmoothSphereHalfSpaceForce_s3_l_pz	ground_torque_SmoothSphereHalfSpaceForce_s3_l_x	ground_torque_SmoothSphereHalfSpaceForce_s3_l_y	ground_torque_SmoothSphereHalfSpaceForce_s3_l_z	ground_force_SmoothSphereHalfSpaceForce_s4_l_vx	ground_force_SmoothSphereHalfSpaceForce_s4_l_vy	ground_force_SmoothSphereHalfSpaceForce_s4_l_vz	ground_force_SmoothSphereHalfSpaceForce_s4_l_px	ground_force_SmoothSphereHalfSpaceForce_s4_l_py	ground_force_SmoothSphereHalfSpaceForce_s4_l_pz	ground_torque_SmoothSphereHalfSpaceForce_s4_l_x	ground_torque_SmoothSphereHalfSpaceForce_s4_l_y	ground_torque_SmoothSphereHalfSpaceForce_s4_l_z	ground_force_SmoothSphereHalfSpaceForce_s5_l_vx	ground_force_SmoothSphereHalfSpaceForce_s5_l_vy	ground_force_SmoothSphereHalfSpaceForce_s5_l_vz	ground_force_SmoothSphereHalfSpaceForce_s5_l_px	ground_force_SmoothSphereHalfSpaceForce_s5_l_py	ground_force_SmoothSphereHalfSpaceForce_s5_l_pz	ground_torque_SmoothSphereHalfSpaceForce_s5_l_x	ground_torque_SmoothSphereHalfSpaceForce_s5_l_y	ground_torque_SmoothSphereHalfSpaceForce_s5_l_z	ground_force_SmoothSphereHalfSpaceForce_s6_l_vx	ground_force_SmoothSphereHalfSpaceForce_s6_l_vy	ground_force_SmoothSphereHalfSpaceForce_s6_l_vz	ground_force_SmoothSphereHalfSpaceForce_s6_l_px	ground_force_SmoothSphereHalfSpaceForce_s6_l_py	ground_force_SmoothSphereHalfSpaceForce_s6_l_pz	ground_torque_SmoothSphereHalfSpaceForce_s6_l_x	ground_torque_SmoothSphereHalfSpaceForce_s6_l_y	ground_torque_SmoothSphereHalfSpaceForce_s6_l_z	
          3.85000000	         -0.00000000	         -0.00000000	         -0.00000000	         -4.61070323	          0.03602887	         -0.08595318	          0.00000000	          0.00000000	          0.00000000	         12.56755304	         -3.86843485	          1.13070543	         -4.50446424	         -0.01549628	         -0.00951097	          0.00000000	          0.00000000	          0.00000000	         -0.00017574	          0.00005604	         -0.00001897	         -4.54249547	          0.01326734	          0.05095848	          0.00000000	          0.00000000	          0.00000000	         -0.00000000	          0.00000000	         -0.00000000	         -4.57826031	          0.02575266	         -0.01614733	          0.00000000	          0.00000000	          0.00000000	          0.00002679	         -0.00000823	          0.00000229	         -4.45359065	         -0.03294564	          0.05066642	          0.00000000	          0.00000000	          0.00000000	        -73.94197319	         24.12254725	         -7.55931445	         -4.48643854	         -0.00188850	          0.10995026	          0.00000000	          0.00000000	          0.00000000	        -70.80862711	         48.13057261	        -16.84912546	         -3.54198142	         -0.00260619	         -0.19370340	          0.00000000	          0.00000000	          0.00000000	         -0.01355293	          0.00852822	         -0.00138727	         -3.41473935	          0.00946183	         -0.08893507	          0.00000000	          0.00000000	          0.00000000	         -0.00000000	         -0.00000000	         -0.00000000	         -3.40794993	          0.03753380	         -0.16114363	          0.00000000	          0.00000000	          0.00000000	         -0.00000069	          0.00000045	         -0.00000011	         -3.47543839	          0.01821374	         -0.18006708	          0.00000000	          0.00000000	          0.00000000	         -0.00000000	         -0.00000000	         -0.00000000	         -3.35787454	          0.03234925	         -0.04216510	          0.00000000	          0.00000000	          0.00000000	         -0.00000000	         -0.00000000	         -0.00000000	         -3.36813777	          0.06616105	         -0.10359354	          0.00000000	          0.00000000	          0.00000000	
          3.86000000	         -0.00000000	         -0.00000000	         -0.00000000	         -4.57167429	          0.03511541	         -0.07970559	          0.00000000	          0.00000000	          0.00000000	          9.55011858	         -3.18731707	          0.62125838	         -4.45899269	         -0.01375127	         -0.00553993	          0.00000000	          0.00000000	          0.00000000	         -0.00015738	          0.00005368	         -0.00001277	         -4.50051370	          0.01307995	          0.05617442	          0.00000000	          0.00000000	          0.00000000	         -0.00000000	          0.00000000	         -0.00000000	         -4.53788997	          0.02513225	         -0.01036752	          0.00000000	          0.00000000	          0.00000000	         30.29866145	        -10.17557801	          1.76727158	         -4.40711686	         -0.03077683	          0.05398167	          0.00000000	          0.00000000	          0.00000000	        -98.45116710	         34.58620051	         -6.97305320	         -4.44470548	         -0.00200727	          0.11503973	          0.00000000	          0.00000000	          0.00000000	        -99.24378538	         73.72072715	        -16.85284933	         -3.52749059	         -0.00318357	         -0.19140853	          0.00000000	          0.00000000	          0.00000000	         -0.91281574	          0.68717525	         -0.22257566	         -3.39865758	          0.00524490	         -0.08716173	          0.00000000	          0.00000000	          0.00000000	         -0.00000000	         -0.00000000	         -0.00000000	         -3.38852703	          0.03274411	         -0.15985876	          0.00000000	          0.00000000	          0.00000000	         -0.00001536	          0.00001091	         -0.00000266	         -3.45839307	          0.01553276	         -0.17828862	          0.00000000	          0.00000000	          0.00000000	         -0.00000000	          0.00000000	         -0.00000000	         -3.33646546	          0.02566051	         -0.04238561	          0.00000000	          0.00000000	          0.00000000	         -0.00000000	         -0.00000000	         -0.00000000	         -3.34011345	          0.05902698	         -0.10551364	          0.00000000	          0.00000000	          0.00000000	
          3.87000000	         -0.00000000	         -0.00000000	         -0.00000000	         -4.53327801	          0.03585225	         -0.07552458	          0.00000000	          0.00000000	          0.00000000	          0.02715691	         -0.00966114	          0.00092383	         -4.41751804	         -0.01182263	         -0.00301561	          0.00000000	          0.00000000	          0.00000000	         -0.00003542	          0.00001284	         -0.00000140	         -4.46109315	          0.01359487	          0.05966873	          0.00000000	          0.00000000	          0.00000000	         -0.00000000	          0.00000000	         -0.00000000	         -4.49905727	          0.02571089	         -0.00649304	          0.00000000	          0.00000000	          0.00000000	         18.73918004	         -6.77556455	          0.65521388	         -4.36565815	         -0.02906653	          0.05600592	          0.00000000	          0.00000000	          0.00000000	        -68.49281959	         25.67717341	         -2.51801204	         -4.40620289	         -0.00208718	          0.11842647	          0.00000000	          0.00000000	          0.00000000	       -121.94742387	         98.80491998	          1.73247460	         -3.51535131	         -0.00398728	         -0.19087940	          0.00000000	          0.00000000	          0.00000000	        -28.06115988	         26.70205211	        -12.74592495	         -3.38721057	          0.00026134	         -0.08477923	          0.00000000	          0.00000000	          0.00000000	         -0.00000000	          0.00000000	         -0.00000000	         -3.37185288	          0.02681246	         -0.15796808	          0.00000000	          0.00000000	          0.00000000	         -0.00059765	          0.00046914	         -0.00008646	         -3.44383125	          0.01215959	         -0.17710271	          0.00000000	          0.00000000	          0.00000000	         -0.00000194	          0.00000202	         -0.00000126	         -3.32092963	          0.01770795	         -0.04077310	          0.00000000	          0.00000000	          0.00000000	         -0.00000000	         -0.00000000	         -0.00000000	         -3.31653342	          0.05013886	         -0.10577587	          0.00000000	          0.00000000	          0.00000000	
          3.88000000	          0.00000000	         -0.00000000	         -0.00000000	         -4.49509750	          0.03823465	         -0.07398673	          0.00000000	          0.00000000	          0.00000000	          0.00000657	         -0.00000247	         -0.00000011	         -4.37899486	         -0.00948489	         -0.00214625	          0.00000000	          0.00000000	          0.00000000	          0.00000015	         -0.00000006	         -0.00000000	         -4.42397416	          0.01496322	          0.06108615	          0.00000000	          0.00000000	          0.00000000	          0.00000000	         -0.00000000	         -0.00000000	         -4.46145001	          0.02755842	         -0.00499600	          0.00000000	          0.00000000	          0.00000000	          3.76788275	         -1.45464338	         -0.02896922	         -4.32808253	         -0.02738382	          0.05672149	          0.00000000	          0.00000000	          0.00000000	        -36.84452276	         14.71807127	          0.62765052	         -4.37061109	         -0.00167357	          0.11995909	          0.00000000	          0.00000000	          0.00000000	        -32.54786926	         42.11965924	         40.26253199	         -3.50570802	         -0.00410005	         -0.19425001	          0.00000000	          0.00000000	          0.00000000	         48.59357882	        525.96736311	        137.76184032	         -3.38129318	         -0.00564901	         -0.08352131	          0.00000000	          0.00000000	          0.00000000	         -0.00000017	          0.00000015	         -0.00000002	         -3.35836978	          0.01991919	         -0.15612916	          0.00000000	          0.00000000	          0.00000000	         -0.01862653	          0.01834350	          0.00920638	         -3.43202923	          0.00865860	         -0.17787607	          0.00000000	          0.00000000	          0.00000000	          0.06326833	          0.11223056	         -0.08397651	         -3.31225140	          0.00781147	         -0.03822707	          0.00000000	          0.00000000	          0.00000000	         -0.00000000	         -0.00000000	         -0.00000000	         -3.29776888	          0.03913223	         -0.10393886	          0.00000000	          0.00000000	          0.00000000	
